<?xml version="1.0" standalone="no"?>
<!DOCTYPE svg PUBLIC "-//W3C//DTD SVG 20010904//EN"
 "http://www.w3.org/TR/2001/REC-SVG-20010904/DTD/svg10.dtd">
<svg version="1.0" xmlns="http://www.w3.org/2000/svg"
 width="853.000000pt" height="854.000000pt" viewBox="0 0 853.000000 854.000000"
 preserveAspectRatio="xMidYMid meet">

<g transform="translate(0.000000,854.000000) scale(0.100000,-0.100000)"
fill="#000000" stroke="none">
<path d="M990 8531 c-71 -22 -127 -69 -164 -136 l-21 -40 -5 -1523 -5 -1523
-88 -29 c-105 -36 -150 -58 -244 -121 -142 -96 -270 -247 -352 -414 -57 -115
-76 -174 -96 -300 -62 -379 85 -764 384 -1006 93 -76 234 -152 331 -178 l65
-18 5 -1524 5 -1524 23 -47 c75 -152 305 -186 427 -63 81 80 75 -47 75 1646
l0 1508 68 20 c370 111 664 461 722 860 17 114 8 313 -19 416 -93 354 -353
640 -676 744 l-90 29 -5 1524 -5 1523 -23 48 c-30 59 -82 103 -146 122 -53 16
-125 18 -166 6z m246 -3751 c124 -43 251 -156 310 -275 176 -360 -112 -789
-512 -762 -139 10 -248 62 -350 169 -119 123 -165 263 -144 435 26 210 220
416 427 453 70 13 201 3 269 -20z"/>
<path d="M4179 8527 c-65 -25 -107 -57 -141 -110 l-33 -52 -5 -2328 -5 -2328
-90 -30 c-323 -108 -579 -388 -672 -734 -24 -90 -26 -118 -27 -270 0 -153 3
-180 26 -267 97 -355 354 -634 686 -743 l82 -27 0 -712 c1 -568 4 -719 14
-749 20 -55 61 -103 114 -134 42 -25 57 -28 137 -28 80 0 95 3 137 28 53 31
94 79 114 134 10 30 13 181 14 749 l0 712 83 27 c334 111 589 387 684 742 24
88 27 116 27 268 0 152 -3 180 -27 267 -93 349 -348 628 -672 737 l-90 30 -5
2323 c-3 1378 -9 2331 -14 2343 -46 99 -128 156 -235 162 -40 2 -80 -2 -102
-10z m257 -5347 c147 -51 283 -188 334 -335 66 -192 13 -401 -137 -546 -86
-82 -139 -114 -238 -139 -180 -46 -344 -3 -485 127 -129 120 -173 218 -173
388 -1 95 3 119 26 177 69 178 230 317 401 348 73 13 203 3 272 -20z"/>
<path d="M7372 8526 c-59 -19 -107 -58 -139 -114 l-28 -47 -5 -728 -5 -729
-70 -23 c-159 -51 -286 -127 -400 -240 -169 -167 -282 -387 -315 -614 -17
-110 -7 -311 19 -416 45 -184 146 -360 286 -501 121 -123 262 -208 418 -255
l67 -20 0 -2317 0 -2317 24 -51 c45 -96 145 -151 261 -142 102 9 171 53 218
142 l22 41 5 2323 5 2324 87 28 c299 96 545 349 656 675 24 71 52 248 52 330
0 167 -59 390 -141 529 -144 243 -345 406 -599 486 l-55 18 -5 723 c-5 717 -5
724 -26 764 -48 89 -123 136 -224 141 -38 2 -83 -2 -108 -10z m206 -2131 c174
-41 333 -184 390 -350 64 -188 21 -380 -118 -529 -118 -126 -216 -169 -385
-169 -89 -1 -121 3 -170 21 -121 45 -237 143 -299 255 -91 163 -84 379 18 532
131 198 349 290 564 240z"/>
</g>
</svg>
